<?xml version="1.0" encoding="UTF-8" standalone="no"?>
<svg
   xmlns:dc="http://purl.org/dc/elements/1.1/"
   xmlns:cc="http://creativecommons.org/ns#"
   xmlns:rdf="http://www.w3.org/1999/02/22-rdf-syntax-ns#"
   xmlns:svg="http://www.w3.org/2000/svg"
   xmlns="http://www.w3.org/2000/svg"
   xmlns:sodipodi="http://sodipodi.sourceforge.net/DTD/sodipodi-0.dtd"
   xmlns:inkscape="http://www.inkscape.org/namespaces/inkscape"
   inkscape:export-ydpi="96"
   inkscape:export-xdpi="96"
   inkscape:export-filename="/home/rochmadnf/Downloads/latihan-roket.png"
   width="652"
   height="652"
   viewBox="0 0 172.50833 172.50834"
   version="1.1"
   id="svg8"
   inkscape:version="1.0 (4035a4fb49, 2020-05-01)"
   sodipodi:docname="latihan-roket.svg">
  <defs
     id="defs2">
    <inkscape:perspective
       id="perspective2383"
       inkscape:persp3d-origin="105 : -25.49167 : 1"
       inkscape:vp_z="210 : 24.008328 : 1"
       inkscape:vp_y="0 : 1000 : 0"
       inkscape:vp_x="0 : 24.008328 : 1"
       sodipodi:type="inkscape:persp3d" />
    <filter
       height="0.98570991"
       y="-0.012183482"
       width="0.97471339"
       x="-0.011821963"
       id="filter2220"
       style="color-interpolation-filters:sRGB"
       inkscape:collect="always">
      <feGaussianBlur
         id="feGaussianBlur2222"
         stdDeviation="0.1671653"
         inkscape:collect="always" />
    </filter>
    <filter
       height="1.15"
       y="-0.075000003"
       width="1.15"
       x="-0.075000003"
       id="filter2355"
       style="color-interpolation-filters:sRGB"
       inkscape:collect="always">
      <feGaussianBlur
         id="feGaussianBlur2357"
         stdDeviation="4.6875"
         inkscape:collect="always" />
    </filter>
  </defs>
  <sodipodi:namedview
     units="px"
     inkscape:object-paths="true"
     inkscape:snap-intersection-paths="true"
     id="base"
     pagecolor="#ffffff"
     bordercolor="#666666"
     borderopacity="1.0"
     inkscape:pageopacity="0.0"
     inkscape:pageshadow="2"
     inkscape:zoom="0.49497475"
     inkscape:cx="446.18851"
     inkscape:cy="297.34701"
     inkscape:document-units="mm"
     inkscape:current-layer="layer1"
     inkscape:document-rotation="0"
     showgrid="true"
     showguides="false"
     inkscape:guide-bbox="true"
     inkscape:snap-grids="true"
     inkscape:pagecheckerboard="false"
     inkscape:window-width="1366"
     inkscape:window-height="712"
     inkscape:window-x="0"
     inkscape:window-y="28"
     inkscape:window-maximized="1" />
  <metadata
     id="metadata5">
    <rdf:RDF>
      <cc:Work
         rdf:about="">
        <dc:format>image/svg+xml</dc:format>
        <dc:type
           rdf:resource="http://purl.org/dc/dcmitype/StillImage" />
        <dc:title></dc:title>
      </cc:Work>
    </rdf:RDF>
  </metadata>
  <g
     inkscape:label="moon"
     id="layer3"
     inkscape:groupmode="layer" />
  <g
     style="display:inline"
     inkscape:label="Body"
     inkscape:groupmode="layer"
     id="layer1">
    <g
       transform="translate(0.0314745,-0.3400999)"
       id="g2437">
      <circle
         r="75"
         cy="86.594269"
         cx="86.222694"
         id="path1021"
         style="opacity:0.6;fill:#b3b3b3;fill-opacity:1;stroke:none;stroke-width:1.5625;stroke-linecap:round;stroke-miterlimit:4;stroke-dasharray:none;stroke-opacity:1;filter:url(#filter2355)"
         inkscape:export-xdpi="96"
         inkscape:export-ydpi="96" />
      <circle
         style="fill:#b3b3b3;fill-opacity:1;stroke:none;stroke-width:1.5625;stroke-linecap:round;stroke-miterlimit:4;stroke-dasharray:none;stroke-opacity:1"
         id="circle2162"
         cx="-90.215645"
         cy="-77.352127"
         r="75"
         transform="scale(-1)"
         inkscape:export-xdpi="96"
         inkscape:export-ydpi="96" />
      <path
         id="circle2402"
         style="fill:#999999;fill-opacity:1;stroke:none;stroke-width:1.5625;stroke-linecap:round;stroke-miterlimit:4;stroke-dasharray:none;stroke-opacity:1"
         d="m 138.12206,103.30505 a 75,75 0 0 0 23.76703,-3.865909 75,75 0 0 0 3.32641,-22.08703 75,75 0 0 0 -75.000077,-75.0000722 75,75 0 0 0 -23.76701,3.8654 75,75 0 0 0 -3.32641,22.0875402 75,75 0 0 0 75.000057,75.000071 z"
         inkscape:export-xdpi="96"
         inkscape:export-ydpi="96" />
      <path
         id="circle2343"
         style="fill:#999999;fill-opacity:1;stroke:none;stroke-width:1.5625;stroke-linecap:round;stroke-miterlimit:4;stroke-dasharray:none;stroke-opacity:1"
         d="m 15.174783,76.874691 a 75,75 0 0 1 0.30902,-6.79804 5.0526079,5.0526079 0 0 1 1.93012,-0.38292 5.0526079,5.0526079 0 0 1 5.01364,4.43074 5.8536128,5.8536128 0 0 1 0.88522,-0.14418 4.9147142,4.9147142 0 0 1 -0.22427,-1.46502 4.9147142,4.9147142 0 0 1 4.91494,-4.91495 4.9147142,4.9147142 0 0 1 4.91495,4.91495 4.9147142,4.9147142 0 0 1 -3.82148,4.79092 5.8536128,5.8536128 0 0 1 0.56379,2.50682 5.8536128,5.8536128 0 0 1 -5.85338,5.85339 5.8536128,5.8536128 0 0 1 -0.47801,-0.0196 4.8933692,4.8933692 0 0 1 0.25373,1.55287 4.8933692,4.8933692 0 0 1 -4.89324,4.89376 4.8933692,4.8933692 0 0 1 -2.04587,-0.44803 75,75 0 0 1 -1.17461,-8.12974 4.8933692,4.8933692 0 0 1 3.04374,-1.20613 5.8536128,5.8536128 0 0 1 -0.55965,-2.49649 5.8536128,5.8536128 0 0 1 5.3e-4,-0.0429 5.0526079,5.0526079 0 0 1 -0.54002,0.0289 5.0526079,5.0526079 0 0 1 -2.19987,-0.50436 75,75 0 0 1 -0.0393,-2.42001 z"
         inkscape:export-xdpi="96"
         inkscape:export-ydpi="96" />
      <path
         d="m 90.885673,152.32774 a 75,75 0 0 1 -6.798041,-0.30902 5.0526079,5.0526079 0 0 1 -0.38292,-1.93012 5.0526079,5.0526079 0 0 1 4.430741,-5.01365 5.8536128,5.8536128 0 0 1 -0.14418,-0.88521 4.9147142,4.9147142 0 0 1 -1.46502,0.22427 4.9147142,4.9147142 0 0 1 -4.914951,-4.91494 4.9147142,4.9147142 0 0 1 4.914951,-4.91495 4.9147142,4.9147142 0 0 1 4.79092,3.82147 5.8536128,5.8536128 0 0 1 2.50682,-0.56379 5.8536128,5.8536128 0 0 1 5.85339,5.85339 5.8536128,5.8536128 0 0 1 -0.0196,0.47801 4.8933692,4.8933692 0 0 1 1.552867,-0.25373 4.8933692,4.8933692 0 0 1 4.89376,4.89324 4.8933692,4.8933692 0 0 1 -0.44803,2.04587 75,75 0 0 1 -8.129737,1.17461 4.8933692,4.8933692 0 0 1 -1.20613,-3.04375 5.8536128,5.8536128 0 0 1 -2.49649,0.55966 5.8536128,5.8536128 0 0 1 -0.0429,-5.3e-4 5.0526079,5.0526079 0 0 1 0.0289,0.54002 5.0526079,5.0526079 0 0 1 -0.50436,2.19986 75,75 0 0 1 -2.42001,0.0393 z"
         style="fill:#999999;fill-opacity:1;stroke:none;stroke-width:1.5625;stroke-linecap:round;stroke-miterlimit:4;stroke-dasharray:none;stroke-opacity:1"
         id="path2349"
         inkscape:export-xdpi="96"
         inkscape:export-ydpi="96" />
      <g
         id="g2398"
         transform="rotate(6.720195,797.13821,16.03146)"
         inkscape:export-xdpi="96"
         inkscape:export-ydpi="96">
        <path
           sodipodi:nodetypes="cccc"
           id="path907"
           d="m 93.699321,143.77367 -19.95111,0.83409 -3.975445,27.4943 z"
           style="fill:#666666;fill-opacity:1;stroke:none;stroke-width:0.311334px;stroke-linecap:butt;stroke-linejoin:miter;stroke-opacity:1" />
        <path
           sodipodi:nodetypes="cc"
           id="path60"
           d="m 156.78567,87.148126 c 0,0 -49.41198,9.716744 -75.29713,75.033424 l 10.788039,8.86692 z"
           style="fill:#666666;fill-opacity:1;stroke:none;stroke-width:0.24863px;stroke-linecap:butt;stroke-linejoin:miter;stroke-opacity:1" />
        <path
           style="fill:#666666;fill-opacity:1;stroke:none;stroke-width:0.311334px;stroke-linecap:butt;stroke-linejoin:miter;stroke-opacity:1"
           d="m 118.27021,162.6656 4.32009,19.49563 -25.549903,10.90626 z"
           id="path911"
           sodipodi:nodetypes="cccc" />
        <path
           style="fill:#666666;fill-opacity:1;stroke:none;stroke-width:0.24863px;stroke-linecap:butt;stroke-linejoin:miter;stroke-opacity:1"
           d="m 156.78567,87.148126 c 0,0 3.30515,50.249614 -53.16801,92.047974 l -11.341081,-8.14763 z"
           id="path909"
           sodipodi:nodetypes="cc" />
        <path
           sodipodi:nodetypes="cccc"
           id="path1029"
           d="m 117.15232,167.60866 2.95043,13.31468 -17.44948,7.4485 z"
           style="fill:#999999;fill-opacity:1;stroke:none;stroke-width:0.212627px;stroke-linecap:butt;stroke-linejoin:miter;stroke-opacity:1" />
        <path
           sodipodi:nodetypes="cc"
           id="path1007"
           d="m 153.56021,91.34315 c 0,0 2.0534,45.89904 -49.81904,85.18267 l -10.108755,-7.24075 z"
           style="fill:#999999;fill-opacity:1;stroke:none;stroke-width:0.226125px;stroke-linecap:butt;stroke-linejoin:miter;stroke-opacity:1" />
        <path
           d="m 114.67828,141.36284 c -2.59989,-1.87853 -6.43037,-1.69868 -8.84303,0.41461 -2.51854,2.05949 -3.30489,5.88768 -1.80372,8.77343 1.39565,2.92615 4.90485,4.60057 8.05774,3.84919 3.1395,-0.63905 5.60262,-3.57378 5.68543,-6.77621 0.12307,-2.44031 -1.08313,-4.8764 -3.09642,-6.26102 z"
           style="fill:#999999;fill-opacity:1;stroke:none;stroke-width:0.168451;stroke-linecap:round;stroke-opacity:1"
           id="path926" />
        <path
           d="m 136.01197,113.61624 c -2.59988,-1.87852 -6.43034,-1.69868 -8.84299,0.41461 -2.51852,2.0595 -3.30487,5.88769 -1.8037,8.77343 1.39563,2.92615 4.90481,4.60058 8.05769,3.8492 3.13949,-0.63905 5.60262,-3.57379 5.68542,-6.77622 0.12307,-2.4403 -1.08313,-4.8764 -3.09642,-6.26102 z"
           style="fill:#999999;fill-opacity:1;stroke:none;stroke-width:0.168451;stroke-linecap:round;stroke-opacity:1"
           id="circle928" />
        <path
           id="path1017"
           style="fill:#666666;fill-opacity:1;stroke:none;stroke-width:0.129003;stroke-linecap:round;stroke-opacity:1"
           d="m 135.03822,115.00832 c -1.99102,-1.43864 -4.92448,-1.30088 -6.77213,0.31751 -1.92873,1.5772 -2.53093,4.50891 -1.38131,6.71886 1.0688,2.2409 3.7562,3.5232 6.17073,2.94778 2.40428,-0.48939 4.29059,-2.73687 4.354,-5.18935 0.0943,-1.86883 -0.82947,-3.73444 -2.37129,-4.7948 z" />
        <path
           d="m 113.70453,142.75492 c -1.99103,-1.43864 -4.9245,-1.30088 -6.77216,0.31751 -1.92874,1.5772 -2.53095,4.5089 -1.38132,6.71886 1.0688,2.24089 3.75622,3.5232 6.17077,2.94778 2.40428,-0.4894 4.29059,-2.73687 4.354,-5.18935 0.0943,-1.86883 -0.82947,-3.73444 -2.37129,-4.7948 z"
           style="fill:#666666;fill-opacity:1;stroke:none;stroke-width:0.129003;stroke-linecap:round;stroke-opacity:1"
           id="path1019" />
        <path
           style="fill:#999999;stroke:#999999;stroke-width:4.733;stroke-linecap:butt;stroke-linejoin:round;stroke-miterlimit:4;stroke-dasharray:none;stroke-opacity:1;paint-order:stroke fill markers"
           d="m 84.846329,170.46497 c 2.980304,2.2915 5.979541,4.59755 9.017751,6.93354 l -31.039682,31.32194 z"
           id="path2385"
           sodipodi:nodetypes="cccc" />
      </g>
      <text
         xml:space="preserve"
         style="font-style:normal;font-variant:normal;font-weight:normal;font-stretch:normal;font-size:6.35px;line-height:1.25;font-family:'JetBrains Mono';-inkscape-font-specification:'JetBrains Mono';opacity:0.573761;fill:#808080;fill-opacity:1;stroke:none;stroke-width:0.264583"
         x="20.657423"
         y="130.26643"
         id="text2411"
         transform="rotate(-46.252512)"
         inkscape:export-xdpi="96"
         inkscape:export-ydpi="96"><tspan
           sodipodi:role="line"
           id="tspan2409"
           x="20.657423"
           y="130.26643"
           style="font-style:normal;font-variant:normal;font-weight:normal;font-stretch:normal;font-size:6.35px;font-family:'JetBrains Mono';-inkscape-font-specification:'JetBrains Mono';fill:#808080;stroke-width:0.264583">rochmadnf</tspan></text>
    </g>
  </g>
</svg>
